<svg id="visual" viewBox="0 0 1600 1800" width="1600" height="1800" xmlns="http://www.w3.org/2000/svg" xmlns:xlink="http://www.w3.org/1999/xlink" version="1.1"><rect x="0" y="0" width="1600" height="1800" fill="#c0fceb"></rect><path d="M0 719L38.2 680.3C76.3 641.7 152.7 564.3 228.8 563.7C305 563 381 639 457.2 678.5C533.3 718 609.7 721 685.8 712.7C762 704.3 838 684.7 914.2 666C990.3 647.3 1066.7 629.7 1142.8 638.3C1219 647 1295 682 1371.2 666.2C1447.3 650.3 1523.7 583.7 1561.8 550.3L1600 517L1600 0L1561.8 0C1523.7 0 1447.3 0 1371.2 0C1295 0 1219 0 1142.8 0C1066.7 0 990.3 0 914.2 0C838 0 762 0 685.8 0C609.7 0 533.3 0 457.2 0C381 0 305 0 228.8 0C152.7 0 76.3 0 38.2 0L0 0Z" fill="#69faf8"></path><path d="M0 561L38.2 561.5C76.3 562 152.7 563 228.8 569.2C305 575.3 381 586.7 457.2 572.2C533.3 557.7 609.7 517.3 685.8 481.3C762 445.3 838 413.7 914.2 431C990.3 448.3 1066.7 514.7 1142.8 550.5C1219 586.3 1295 591.7 1371.2 567.3C1447.3 543 1523.7 489 1561.8 462L1600 435L1600 0L1561.8 0C1523.7 0 1447.3 0 1371.2 0C1295 0 1219 0 1142.8 0C1066.7 0 990.3 0 914.2 0C838 0 762 0 685.8 0C609.7 0 533.3 0 457.2 0C381 0 305 0 228.8 0C152.7 0 76.3 0 38.2 0L0 0Z" fill="#00d2ff"></path><path d="M0 307L38.2 317.8C76.3 328.7 152.7 350.3 228.8 367.5C305 384.7 381 397.3 457.2 391.2C533.3 385 609.7 360 685.8 336C762 312 838 289 914.2 311C990.3 333 1066.7 400 1142.8 428.8C1219 457.7 1295 448.3 1371.2 448.8C1447.3 449.3 1523.7 459.7 1561.8 464.8L1600 470L1600 0L1561.8 0C1523.7 0 1447.3 0 1371.2 0C1295 0 1219 0 1142.8 0C1066.7 0 990.3 0 914.2 0C838 0 762 0 685.8 0C609.7 0 533.3 0 457.2 0C381 0 305 0 228.8 0C152.7 0 76.3 0 38.2 0L0 0Z" fill="#00a2ff"></path><path d="M0 301L38.2 295.3C76.3 289.7 152.7 278.3 228.8 261.5C305 244.7 381 222.3 457.2 212.2C533.3 202 609.7 204 685.8 212.5C762 221 838 236 914.2 230.5C990.3 225 1066.7 199 1142.8 196.7C1219 194.3 1295 215.7 1371.2 243.5C1447.3 271.3 1523.7 305.7 1561.8 322.8L1600 340L1600 0L1561.8 0C1523.7 0 1447.3 0 1371.2 0C1295 0 1219 0 1142.8 0C1066.7 0 990.3 0 914.2 0C838 0 762 0 685.8 0C609.7 0 533.3 0 457.2 0C381 0 305 0 228.8 0C152.7 0 76.3 0 38.2 0L0 0Z" fill="#006bec"></path><path d="M0 95L38.2 99C76.3 103 152.7 111 228.8 126.2C305 141.3 381 163.7 457.2 173C533.3 182.3 609.7 178.7 685.8 161.2C762 143.7 838 112.3 914.2 111C990.3 109.7 1066.7 138.3 1142.8 139.7C1219 141 1295 115 1371.2 121.8C1447.3 128.7 1523.7 168.3 1561.8 188.2L1600 208L1600 0L1561.8 0C1523.7 0 1447.3 0 1371.2 0C1295 0 1219 0 1142.8 0C1066.7 0 990.3 0 914.2 0C838 0 762 0 685.8 0C609.7 0 533.3 0 457.2 0C381 0 305 0 228.8 0C152.7 0 76.3 0 38.2 0L0 0Z" fill="#2426c7"></path></svg>