<svg id="visual" viewBox="0 0 1600 1800" width="1600" height="1800" xmlns="http://www.w3.org/2000/svg" xmlns:xlink="http://www.w3.org/1999/xlink" version="1.1"><rect x="0" y="0" width="1600" height="1800" fill="#c0fceb"></rect><path d="M0 1079L38.2 1117.7C76.3 1156.3 152.7 1233.7 228.8 1234.3C305 1235 381 1159 457.2 1119.5C533.3 1080 609.7 1077 685.8 1085.3C762 1093.7 838 1113.3 914.2 1132C990.3 1150.7 1066.7 1168.3 1142.8 1159.7C1219 1151 1295 1116 1371.2 1131.8C1447.3 1147.7 1523.7 1214.3 1561.8 1247.7L1600 1281L1600 1801L1561.8 1801C1523.7 1801 1447.3 1801 1371.2 1801C1295 1801 1219 1801 1142.8 1801C1066.7 1801 990.3 1801 914.2 1801C838 1801 762 1801 685.8 1801C609.7 1801 533.3 1801 457.2 1801C381 1801 305 1801 228.8 1801C152.7 1801 76.3 1801 38.2 1801L0 1801Z" fill="#69faf8"></path><path d="M0 1237L38.2 1236.5C76.3 1236 152.7 1235 228.8 1228.8C305 1222.7 381 1211.3 457.2 1225.8C533.3 1240.3 609.7 1280.7 685.8 1316.7C762 1352.7 838 1384.3 914.2 1367C990.3 1349.7 1066.7 1283.3 1142.8 1247.5C1219 1211.7 1295 1206.3 1371.2 1230.7C1447.3 1255 1523.7 1309 1561.8 1336L1600 1363L1600 1801L1561.8 1801C1523.7 1801 1447.3 1801 1371.2 1801C1295 1801 1219 1801 1142.8 1801C1066.7 1801 990.3 1801 914.2 1801C838 1801 762 1801 685.8 1801C609.7 1801 533.3 1801 457.2 1801C381 1801 305 1801 228.8 1801C152.7 1801 76.3 1801 38.2 1801L0 1801Z" fill="#00d2ff"></path><path d="M0 1491L38.2 1480.2C76.3 1469.3 152.7 1447.7 228.8 1430.5C305 1413.3 381 1400.7 457.2 1406.8C533.3 1413 609.7 1438 685.8 1462C762 1486 838 1509 914.2 1487C990.3 1465 1066.7 1398 1142.8 1369.2C1219 1340.3 1295 1349.7 1371.2 1349.2C1447.3 1348.7 1523.7 1338.3 1561.8 1333.2L1600 1328L1600 1801L1561.8 1801C1523.7 1801 1447.3 1801 1371.2 1801C1295 1801 1219 1801 1142.8 1801C1066.7 1801 990.3 1801 914.2 1801C838 1801 762 1801 685.8 1801C609.7 1801 533.3 1801 457.2 1801C381 1801 305 1801 228.8 1801C152.7 1801 76.3 1801 38.2 1801L0 1801Z" fill="#00a2ff"></path><path d="M0 1497L38.2 1502.7C76.3 1508.3 152.7 1519.7 228.8 1536.5C305 1553.3 381 1575.7 457.2 1585.8C533.3 1596 609.7 1594 685.8 1585.5C762 1577 838 1562 914.2 1567.5C990.3 1573 1066.7 1599 1142.8 1601.3C1219 1603.7 1295 1582.3 1371.2 1554.5C1447.3 1526.7 1523.7 1492.3 1561.8 1475.2L1600 1458L1600 1801L1561.8 1801C1523.7 1801 1447.3 1801 1371.2 1801C1295 1801 1219 1801 1142.8 1801C1066.7 1801 990.3 1801 914.2 1801C838 1801 762 1801 685.8 1801C609.7 1801 533.3 1801 457.2 1801C381 1801 305 1801 228.8 1801C152.7 1801 76.3 1801 38.2 1801L0 1801Z" fill="#006bec"></path><path d="M0 1703L38.2 1699C76.3 1695 152.7 1687 228.8 1671.8C305 1656.7 381 1634.3 457.2 1625C533.3 1615.7 609.7 1619.3 685.8 1636.8C762 1654.3 838 1685.7 914.2 1687C990.3 1688.3 1066.7 1659.7 1142.8 1658.3C1219 1657 1295 1683 1371.2 1676.2C1447.3 1669.3 1523.7 1629.7 1561.8 1609.8L1600 1590L1600 1801L1561.8 1801C1523.7 1801 1447.3 1801 1371.2 1801C1295 1801 1219 1801 1142.8 1801C1066.7 1801 990.3 1801 914.2 1801C838 1801 762 1801 685.8 1801C609.7 1801 533.3 1801 457.2 1801C381 1801 305 1801 228.8 1801C152.7 1801 76.3 1801 38.2 1801L0 1801Z" fill="#2426c7"></path></svg>