<svg id="visual" viewBox="0 0 960 540" width="960" height="540" xmlns="http://www.w3.org/2000/svg" xmlns:xlink="http://www.w3.org/1999/xlink" version="1.1"><path d="M0 87L14.5 94.3C29 101.7 58 116.3 87.2 112.8C116.3 109.3 145.7 87.7 174.8 83.2C204 78.7 233 91.3 262 95.8C291 100.3 320 96.7 349 86.7C378 76.7 407 60.3 436.2 53.2C465.3 46 494.7 48 523.8 55.2C553 62.3 582 74.7 611 83.7C640 92.7 669 98.3 698 97.5C727 96.7 756 89.3 785.2 79.3C814.3 69.3 843.7 56.7 872.8 53C902 49.3 931 54.7 945.5 57.3L960 60L960 0L945.5 0C931 0 902 0 872.8 0C843.7 0 814.3 0 785.2 0C756 0 727 0 698 0C669 0 640 0 611 0C582 0 553 0 523.8 0C494.7 0 465.3 0 436.2 0C407 0 378 0 349 0C320 0 291 0 262 0C233 0 204 0 174.8 0C145.7 0 116.3 0 87.2 0C58 0 29 0 14.5 0L0 0Z" fill="#6198ff"></path><path d="M0 125L14.5 130.5C29 136 58 147 87.2 148C116.3 149 145.7 140 174.8 142.7C204 145.3 233 159.7 262 157.8C291 156 320 138 349 124.5C378 111 407 102 436.2 101C465.3 100 494.7 107 523.8 110.5C553 114 582 114 611 122.2C640 130.3 669 146.7 698 152.2C727 157.7 756 152.3 785.2 144.2C814.3 136 843.7 125 872.8 119.5C902 114 931 114 945.5 114L960 114L960 58L945.5 55.3C931 52.7 902 47.3 872.8 51C843.7 54.7 814.3 67.3 785.2 77.3C756 87.3 727 94.7 698 95.5C669 96.3 640 90.7 611 81.7C582 72.7 553 60.3 523.8 53.2C494.7 46 465.3 44 436.2 51.2C407 58.3 378 74.7 349 84.7C320 94.7 291 98.3 262 93.8C233 89.3 204 76.7 174.8 81.2C145.7 85.7 116.3 107.3 87.2 110.8C58 114.3 29 99.7 14.5 92.3L0 85Z" fill="#4385ff"></path><path d="M0 222L14.5 226.5C29 231 58 240 87.2 250C116.3 260 145.7 271 174.8 272C204 273 233 264 262 261.3C291 258.7 320 262.3 349 273.2C378 284 407 302 436.2 302C465.3 302 494.7 284 523.8 264.2C553 244.3 582 222.7 611 219.8C640 217 669 233 698 254.5C727 276 756 303 785.2 294C814.3 285 843.7 240 872.8 225.7C902 211.3 931 227.7 945.5 235.8L960 244L960 112L945.5 112C931 112 902 112 872.8 117.5C843.7 123 814.3 134 785.2 142.2C756 150.3 727 155.7 698 150.2C669 144.7 640 128.3 611 120.2C582 112 553 112 523.8 108.5C494.7 105 465.3 98 436.2 99C407 100 378 109 349 122.5C320 136 291 154 262 155.8C233 157.7 204 143.3 174.8 140.7C145.7 138 116.3 147 87.2 146C58 145 29 134 14.5 128.5L0 123Z" fill="#2071ff"></path><path d="M0 433L14.5 428.5C29 424 58 415 87.2 414.2C116.3 413.3 145.7 420.7 174.8 427C204 433.3 233 438.7 262 430.5C291 422.3 320 400.7 349 398.8C378 397 407 415 436.2 420.3C465.3 425.7 494.7 418.3 523.8 413C553 407.7 582 404.3 611 413.3C640 422.3 669 443.7 698 443.7C727 443.7 756 422.3 785.2 412.5C814.3 402.7 843.7 404.3 872.8 406C902 407.7 931 409.3 945.5 410.2L960 411L960 242L945.5 233.8C931 225.7 902 209.3 872.8 223.7C843.7 238 814.3 283 785.2 292C756 301 727 274 698 252.5C669 231 640 215 611 217.8C582 220.7 553 242.3 523.8 262.2C494.7 282 465.3 300 436.2 300C407 300 378 282 349 271.2C320 260.3 291 256.7 262 259.3C233 262 204 271 174.8 270C145.7 269 116.3 258 87.2 248C58 238 29 229 14.5 224.5L0 220Z" fill="#0061f1"></path><path d="M0 503L14.5 494C29 485 58 467 87.2 461.7C116.3 456.3 145.7 463.7 174.8 472.7C204 481.7 233 492.3 262 488.7C291 485 320 467 349 466.2C378 465.3 407 481.7 436.2 486.2C465.3 490.7 494.7 483.3 523.8 474.3C553 465.3 582 454.7 611 459.2C640 463.7 669 483.3 698 484.2C727 485 756 467 785.2 460.7C814.3 454.3 843.7 459.7 872.8 457.8C902 456 931 447 945.5 442.5L960 438L960 409L945.5 408.2C931 407.3 902 405.7 872.8 404C843.7 402.3 814.3 400.7 785.2 410.5C756 420.3 727 441.7 698 441.7C669 441.7 640 420.3 611 411.3C582 402.3 553 405.7 523.8 411C494.7 416.3 465.3 423.7 436.2 418.3C407 413 378 395 349 396.8C320 398.7 291 420.3 262 428.5C233 436.7 204 431.3 174.8 425C145.7 418.7 116.3 411.3 87.2 412.2C58 413 29 422 14.5 426.5L0 431Z" fill="#0056d6"></path><path d="M0 541L14.5 541C29 541 58 541 87.2 541C116.3 541 145.7 541 174.8 541C204 541 233 541 262 541C291 541 320 541 349 541C378 541 407 541 436.2 541C465.3 541 494.7 541 523.8 541C553 541 582 541 611 541C640 541 669 541 698 541C727 541 756 541 785.2 541C814.3 541 843.7 541 872.8 541C902 541 931 541 945.5 541L960 541L960 436L945.5 440.5C931 445 902 454 872.8 455.8C843.7 457.7 814.3 452.3 785.2 458.7C756 465 727 483 698 482.2C669 481.3 640 461.7 611 457.2C582 452.7 553 463.3 523.8 472.3C494.7 481.3 465.3 488.7 436.2 484.2C407 479.7 378 463.3 349 464.2C320 465 291 483 262 486.7C233 490.3 204 479.7 174.8 470.7C145.7 461.7 116.3 454.3 87.2 459.7C58 465 29 483 14.5 492L0 501Z" fill="#004cbb"></path></svg>