<svg id="visual" viewBox="0 0 1536 1170" width="1536" height="1170" xmlns="http://www.w3.org/2000/svg" xmlns:xlink="http://www.w3.org/1999/xlink" version="1.1"><path d="M0 177L23.3 180.8C46.7 184.7 93.3 192.3 139.8 180.5C186.3 168.7 232.7 137.3 279.2 131.5C325.7 125.7 372.3 145.3 419 153.2C465.7 161 512.3 157 558.8 149.2C605.3 141.3 651.7 129.7 698.2 133.7C744.7 137.7 791.3 157.3 837.8 165.2C884.3 173 930.7 169 977.2 161.2C1023.7 153.3 1070.3 141.7 1117 128C1163.7 114.3 1210.3 98.7 1256.8 110.3C1303.3 122 1349.7 161 1396.2 174.7C1442.7 188.3 1489.3 176.7 1512.7 170.8L1536 165L1536 0L1512.7 0C1489.3 0 1442.7 0 1396.2 0C1349.7 0 1303.3 0 1256.8 0C1210.3 0 1163.7 0 1117 0C1070.3 0 1023.7 0 977.2 0C930.7 0 884.3 0 837.8 0C791.3 0 744.7 0 698.2 0C651.7 0 605.3 0 558.8 0C512.3 0 465.7 0 419 0C372.3 0 325.7 0 279.2 0C232.7 0 186.3 0 139.8 0C93.3 0 46.7 0 23.3 0L0 0Z" fill="#00d4ff"></path><path d="M0 282L23.3 313.2C46.7 344.3 93.3 406.7 139.8 414.5C186.3 422.3 232.7 375.7 279.2 362C325.7 348.3 372.3 367.7 419 385.2C465.7 402.7 512.3 418.3 558.8 418.3C605.3 418.3 651.7 402.7 698.2 394.8C744.7 387 791.3 387 837.8 396.8C884.3 406.7 930.7 426.3 977.2 432.2C1023.7 438 1070.3 430 1117 406.5C1163.7 383 1210.3 344 1256.8 353.8C1303.3 363.7 1349.7 422.3 1396.2 443.8C1442.7 465.3 1489.3 449.7 1512.7 441.8L1536 434L1536 163L1512.7 168.8C1489.3 174.7 1442.7 186.3 1396.2 172.7C1349.7 159 1303.3 120 1256.8 108.3C1210.3 96.7 1163.7 112.3 1117 126C1070.3 139.7 1023.7 151.3 977.2 159.2C930.7 167 884.3 171 837.8 163.2C791.3 155.3 744.7 135.7 698.2 131.7C651.7 127.7 605.3 139.3 558.8 147.2C512.3 155 465.7 159 419 151.2C372.3 143.3 325.7 123.7 279.2 129.5C232.7 135.3 186.3 166.7 139.8 178.5C93.3 190.3 46.7 182.7 23.3 178.8L0 175Z" fill="#0081ff"></path><path d="M0 399L23.3 434C46.7 469 93.3 539 139.8 552.7C186.3 566.3 232.7 523.7 279.2 525.7C325.7 527.7 372.3 574.3 419 593.8C465.7 613.3 512.3 605.7 558.8 580.3C605.3 555 651.7 512 698.2 513.8C744.7 515.7 791.3 562.3 837.8 589.7C884.3 617 930.7 625 977.2 625C1023.7 625 1070.3 617 1117 601.3C1163.7 585.7 1210.3 562.3 1256.8 568.3C1303.3 574.3 1349.7 609.7 1396.2 615.5C1442.7 621.3 1489.3 597.7 1512.7 585.8L1536 574L1536 432L1512.7 439.8C1489.3 447.7 1442.7 463.3 1396.2 441.8C1349.7 420.3 1303.3 361.7 1256.8 351.8C1210.3 342 1163.7 381 1117 404.5C1070.3 428 1023.7 436 977.2 430.2C930.7 424.3 884.3 404.7 837.8 394.8C791.3 385 744.7 385 698.2 392.8C651.7 400.7 605.3 416.3 558.8 416.3C512.3 416.3 465.7 400.7 419 383.2C372.3 365.7 325.7 346.3 279.2 360C232.7 373.7 186.3 420.3 139.8 412.5C93.3 404.7 46.7 342.3 23.3 311.2L0 280Z" fill="#002aff"></path><path d="M0 621L23.3 665.8C46.7 710.7 93.3 800.3 139.8 827.7C186.3 855 232.7 820 279.2 810.3C325.7 800.7 372.3 816.3 419 814.3C465.7 812.3 512.3 792.7 558.8 782.8C605.3 773 651.7 773 698.2 802.3C744.7 831.7 791.3 890.3 837.8 917.7C884.3 945 930.7 941 977.2 939C1023.7 937 1070.3 937 1117 925.3C1163.7 913.7 1210.3 890.3 1256.8 900.2C1303.3 910 1349.7 953 1396.2 966.7C1442.7 980.3 1489.3 964.7 1512.7 956.8L1536 949L1536 572L1512.7 583.8C1489.3 595.7 1442.7 619.3 1396.2 613.5C1349.7 607.7 1303.3 572.3 1256.8 566.3C1210.3 560.3 1163.7 583.7 1117 599.3C1070.3 615 1023.7 623 977.2 623C930.7 623 884.3 615 837.8 587.7C791.3 560.3 744.7 513.7 698.2 511.8C651.7 510 605.3 553 558.8 578.3C512.3 603.7 465.7 611.3 419 591.8C372.3 572.3 325.7 525.7 279.2 523.7C232.7 521.7 186.3 564.3 139.8 550.7C93.3 537 46.7 467 23.3 432L0 397Z" fill="#0081ff"></path><path d="M0 1171L23.3 1171C46.7 1171 93.3 1171 139.8 1171C186.3 1171 232.7 1171 279.2 1171C325.7 1171 372.3 1171 419 1171C465.7 1171 512.3 1171 558.8 1171C605.3 1171 651.7 1171 698.2 1171C744.7 1171 791.3 1171 837.8 1171C884.3 1171 930.7 1171 977.2 1171C1023.7 1171 1070.3 1171 1117 1171C1163.7 1171 1210.3 1171 1256.8 1171C1303.3 1171 1349.7 1171 1396.2 1171C1442.7 1171 1489.3 1171 1512.7 1171L1536 1171L1536 947L1512.7 954.8C1489.3 962.7 1442.7 978.3 1396.2 964.7C1349.7 951 1303.3 908 1256.8 898.2C1210.3 888.3 1163.7 911.7 1117 923.3C1070.3 935 1023.7 935 977.2 937C930.7 939 884.3 943 837.8 915.7C791.3 888.3 744.7 829.7 698.2 800.3C651.7 771 605.3 771 558.8 780.8C512.3 790.7 465.7 810.3 419 812.3C372.3 814.3 325.7 798.7 279.2 808.3C232.7 818 186.3 853 139.8 825.7C93.3 798.3 46.7 708.7 23.3 663.8L0 619Z" fill="#00d4ff"></path></svg>