<svg id="visual" viewBox="0 0 540 960" width="540" height="960" xmlns="http://www.w3.org/2000/svg" xmlns:xlink="http://www.w3.org/1999/xlink" version="1.1"><rect x="0" y="0" width="540" height="960" fill="#319dd3"></rect><path d="M192 0L168 20C144 40 96 80 90.8 120C85.7 160 123.3 200 153.5 240C183.7 280 206.3 320 204.5 360C202.7 400 176.3 440 153.3 480C130.3 520 110.7 560 97.5 600C84.3 640 77.7 680 92.7 720C107.7 760 144.3 800 162.7 840C181 880 181 920 181 940L181 960" fill="none" stroke-linecap="round" stroke-linejoin="miter" stroke="#0066FF" stroke-width="40"></path></svg>